<?xml version="1.0" encoding="UTF-8" standalone="no"?>
<svg
   height="24"
   viewBox="0 0 24 24"
   width="24"
   version="1.1"
   id="svg14"
   sodipodi:docname="maximize-button-dark.svg"
   inkscape:version="1.2.1 (9c6d41e410, 2022-07-14)"
   inkscape:export-filename="pip-out-symbolic2.svg"
   inkscape:export-xdpi="139.636"
   inkscape:export-ydpi="139.636"
   xmlns:inkscape="http://www.inkscape.org/namespaces/inkscape"
   xmlns:sodipodi="http://sodipodi.sourceforge.net/DTD/sodipodi-0.dtd"
   xmlns="http://www.w3.org/2000/svg"
   xmlns:svg="http://www.w3.org/2000/svg">
  <defs
     id="defs18" />
  <sodipodi:namedview
     id="namedview16"
     pagecolor="#505050"
     bordercolor="#eeeeee"
     borderopacity="1"
     inkscape:showpageshadow="0"
     inkscape:pageopacity="0"
     inkscape:pagecheckerboard="0"
     inkscape:deskcolor="#505050"
     showgrid="false"
     inkscape:zoom="10.429825"
     inkscape:cx="6.711522"
     inkscape:cy="17.162321"
     inkscape:window-width="1920"
     inkscape:window-height="1043"
     inkscape:window-x="0"
     inkscape:window-y="0"
     inkscape:window-maximized="1"
     inkscape:current-layer="svg14">
    <inkscape:grid
       type="xygrid"
       id="grid971"
       originx="0"
       originy="0" />
  </sodipodi:namedview>
  <g
     fill="#222222"
     id="g12"
     style="fill:#aebac1;fill-opacity:1"
     transform="scale(0.85714287)">
    <g
       id="g1136"
       style="fill:#aebac1;fill-opacity:1">
      <path
         d="M 1.7500004,1.75 C 0.78613365,1.75 4e-7,2.5361333 4e-7,3.5 v 15.750001 c 0,0.963867 0.78613325,1.749998 1.75,1.749998 H 8.7500002 V 17.500001 H 3.5000005 V 5.2499999 H 21 v 5.2499991 h 3.500001 V 3.5 c 0,-0.9638667 -0.786133,-1.75 -1.750003,-1.75 z m 0,0"
         id="path2"
         style="fill:#aebac1;fill-opacity:1;stroke-width:1.75001" />
      <path
         d="m 15.75,15.736329 c -0.963866,0 -1.749999,0.786132 -1.749999,1.749999 v 7.013671 c 0,0.963869 0.786133,1.750001 1.749999,1.750001 h 10.5 c 0.963867,0 1.75,-0.786132 1.75,-1.750001 v -7.013671 c 0,-0.963867 -0.786133,-1.749999 -1.75,-1.749999 z m 1.750001,3.5 h 7 V 22.75 h -7 z m 0,0"
         fill-opacity="0.34902"
         id="path4"
         style="fill:#aebac1;fill-opacity:1;stroke-width:1.75001" />
      <path
         d="m 13.760743,15.510743 c -0.293947,0.287109 -0.861328,0.328125 -1.319338,-0.03419 L 6.9931649,10.076173 V 8.7568371 h 1.3193355 l 5.4414066,5.4003889 c 0.334959,0.334961 0.314452,1.052737 0.0068,1.353518 z m 0,0"
         id="path6"
         style="fill:#aebac1;fill-opacity:1;stroke-width:1.75001" />
      <path
         d="M 12.243166,8.7568371 H 5.2431648 V 7.0068373 h 7.0000012 z m 0,0"
         id="path8"
         style="fill:#aebac1;fill-opacity:1;stroke-width:1.75001" />
      <path
         d="M 6.9931649,14.006836 H 5.2431648 V 7.0068373 h 1.7500001 z m 0,0"
         id="path10"
         style="fill:#aebac1;fill-opacity:1;stroke-width:1.75001" />
    </g>
  </g>
</svg>
