<?xml version="1.0" encoding="UTF-8" standalone="no"?>
<svg
   height="24"
   viewBox="0 0 24 24"
   width="24"
   version="1.1"
   id="svg14"
   sodipodi:docname="minimize-button-light.svg"
   inkscape:version="1.2.1 (9c6d41e410, 2022-07-14)"
   inkscape:export-filename="pip-out-symbolic2.svg"
   inkscape:export-xdpi="139.636"
   inkscape:export-ydpi="139.636"
   xmlns:inkscape="http://www.inkscape.org/namespaces/inkscape"
   xmlns:sodipodi="http://sodipodi.sourceforge.net/DTD/sodipodi-0.dtd"
   xmlns="http://www.w3.org/2000/svg"
   xmlns:svg="http://www.w3.org/2000/svg">
  <g
     id="g546"
     transform="matrix(1.5,0,0,1.5,4.2338103,-42.650966)">
    <g
       fill="#222222"
       id="g250"
       transform="translate(-2.8225402,27.426165)"
       style="fill:#54656f;fill-opacity:1">
      <path
         d="m 1,2.007812 c -0.550781,0 -1,0.449219 -1,1 v 9 c 0,0.550782 0.449219,1 1,1 h 4 v -2 H 2 v -7 h 10 v 3 h 2 v -4 c 0,-0.550781 -0.449219,-1 -1,-1 z m 0,0"
         fill-opacity="0.34902"
         id="path240"
         style="fill:#54656f;fill-opacity:1" />
      <path
         d="m 9,10 c -0.550781,0 -1,0.449219 -1,1 v 4.007812 c 0,0.550782 0.449219,1 1,1 h 6 c 0.550781,0 1,-0.449218 1,-1 V 11 c 0,-0.550781 -0.449219,-1 -1,-1 z m 1,2 h 4 v 2.007812 h -4 z m 0,0"
         id="path242"
         style="fill:#54656f;fill-opacity:1" />
      <path
         d="M 3.132812,5.140625 C 3.304688,4.976562 3.628906,4.953125 3.890625,5.15625 L 7,8.246094 V 9 H 6.246094 L 3.136719,5.910156 C 2.945312,5.71875 2.957031,5.3125 3.132812,5.140625 Z m 0,0"
         id="path244"
         style="fill:#54656f;fill-opacity:1" />
      <path
         d="m 4,9 h 4 v 1 H 4 Z m 0,0"
         id="path246"
         style="fill:#54656f;fill-opacity:1" />
      <path
         d="m 7,6 h 1 v 4 H 7 Z m 0,0"
         id="path248"
         style="fill:#54656f;fill-opacity:1" />
    </g>
  </g>
  <defs
     id="defs18" />
  <sodipodi:namedview
     id="namedview16"
     pagecolor="#505050"
     bordercolor="#eeeeee"
     borderopacity="1"
     inkscape:showpageshadow="0"
     inkscape:pageopacity="0"
     inkscape:pagecheckerboard="0"
     inkscape:deskcolor="#505050"
     showgrid="false"
     inkscape:zoom="10.429825"
     inkscape:cx="19.942808"
     inkscape:cy="11.409587"
     inkscape:window-width="1920"
     inkscape:window-height="1011"
     inkscape:window-x="0"
     inkscape:window-y="0"
     inkscape:window-maximized="1"
     inkscape:current-layer="svg14">
    <inkscape:grid
       type="xygrid"
       id="grid971"
       originx="0"
       originy="0" />
  </sodipodi:namedview>
</svg>
